HIERARCHY
ROOT hip
{
  OFFSET 0 0 0
  CHANNELS 6 Xposition Yposition Zposition Zrotation Yrotation Xrotation
  JOINT abdomen
  {
    OFFSET 0 20.6881 -0.73152
    CHANNELS 3 Zrotation Xrotation Yrotation
    JOINT chest
    {
      OFFSET 0 11.7043 -0.48768
      CHANNELS 3 Zrotation Xrotation Yrotation
      JOINT neck
      {
        OFFSET 0 22.1894 -2.19456
        CHANNELS 3 Zrotation Xrotation Yrotation
        JOINT head
        {
          OFFSET -0.24384 7.07133 1.2192
          CHANNELS 3 Zrotation Xrotation Yrotation
          JOINT leftEye
          {
            OFFSET 4.14528 8.04674 8.04672
            CHANNELS 3 Zrotation Xrotation Yrotation
            End Site
            {
              OFFSET 1 0 0
            }
          }
          JOINT rightEye
          {
            OFFSET -3.6576 8.04674 8.04672
            CHANNELS 3 Zrotation Xrotation Yrotation
            End Site
            {
              OFFSET 1 0 0
            }
          }
        }
      }
      JOINT rCollar
      {
        OFFSET -2.68224 19.2634 -4.8768
        CHANNELS 3 Zrotation Xrotation Yrotation
        JOINT rShldr
        {
          OFFSET -8.77824 -1.95073 1.46304
          CHANNELS 3 Zrotation Xrotation Yrotation
          JOINT rForeArm
          {
            OFFSET -28.1742 -1.7115 0.48768
            CHANNELS 3 Zrotation Xrotation Yrotation
            JOINT rHand
            {
              OFFSET -22.5879 0.773209 7.07136
              CHANNELS 3 Zrotation Xrotation Yrotation
              JOINT rThumb1
              {
                OFFSET -1.2192 -0.487915 3.41376
                CHANNELS 3 Zrotation Xrotation Yrotation
                JOINT rThumb2
                {
                  OFFSET -3.37035 -0.52449 3.41376
                  CHANNELS 3 Zrotation Xrotation Yrotation
                  End Site
                  {
                    OFFSET -1.78271 -1.18214 1.43049
                  }
                }
              }
              JOINT rIndex1
              {
                OFFSET -7.75947 0.938293 5.60832
                CHANNELS 3 Zrotation Xrotation Yrotation
                JOINT rIndex2
                {
                  OFFSET -2.54057 -0.884171 1.56538
                  CHANNELS 3 Zrotation Xrotation Yrotation
                  End Site
                  {
                    OFFSET -1.62519 -0.234802 1.16502
                  }
                }
              }
              JOINT rMid1
              {
                OFFSET -8.24714 1.18213 3.41376
                CHANNELS 3 Zrotation Xrotation Yrotation
                JOINT rMid2
                {
                  OFFSET -3.10165 -0.590103 1.0647
                  CHANNELS 3 Zrotation Xrotation Yrotation
                  End Site
                  {
                    OFFSET -2.48547 -0.328903 0.83742
                  }
                }
              }
              JOINT rRing1
              {
                OFFSET -8.82822 0.546677 1.51678
                CHANNELS 3 Zrotation Xrotation Yrotation
                JOINT rRing2
                {
                  OFFSET -2.60934 -0.819778 -0.0198488
                  CHANNELS 3 Zrotation Xrotation Yrotation
                  End Site
                  {
                    OFFSET -2.33842 -0.294052 0.168128
                  }
                }
              }
              JOINT rPinky1
              {
                OFFSET -8.27202 -0.0477905 -0.4584
                CHANNELS 3 Zrotation Xrotation Yrotation
                JOINT rPinky2
                {
                  OFFSET -1.82734 -0.647385 -0.700984
                  CHANNELS 3 Zrotation Xrotation Yrotation
                  End Site
                  {
                    OFFSET -1.69225 -0.51767 -0.607171
                  }
                }
              }
            }
          }
        }
      }
      JOINT lCollar
      {
        OFFSET 2.68224 19.2634 -4.8768
        CHANNELS 3 Zrotation Xrotation Yrotation
        JOINT lShldr
        {
          OFFSET 8.77824 -1.95073 1.46304
          CHANNELS 3 Zrotation Xrotation Yrotation
          JOINT lForeArm
          {
            OFFSET 28.1742 -1.7115 0.48768
            CHANNELS 3 Zrotation Xrotation Yrotation
            JOINT lHand
            {
              OFFSET 22.5879 0.773209 7.07136
              CHANNELS 3 Zrotation Xrotation Yrotation
              JOINT lThumb1
              {
                OFFSET 1.2192 -0.487915 3.41376
                CHANNELS 3 Zrotation Xrotation Yrotation
                JOINT lThumb2
                {
                  OFFSET 3.37035 -0.52449 3.41376
                  CHANNELS 3 Zrotation Xrotation Yrotation
                  End Site
                  {
                    OFFSET 1.78271 -1.18214 1.43049
                  }
                }
              }
              JOINT lIndex1
              {
                OFFSET 7.75947 0.938293 5.60832
                CHANNELS 3 Zrotation Xrotation Yrotation
                JOINT lIndex2
                {
                  OFFSET 2.54057 -0.884171 1.56538
                  CHANNELS 3 Zrotation Xrotation Yrotation
                  End Site
                  {
                    OFFSET 1.62519 -0.234802 1.16502
                  }
                }
              }
              JOINT lMid1
              {
                OFFSET 8.24714 1.18213 3.41376
                CHANNELS 3 Zrotation Xrotation Yrotation
                JOINT lMid2
                {
                  OFFSET 3.10165 -0.590103 1.0647
                  CHANNELS 3 Zrotation Xrotation Yrotation
                  End Site
                  {
                    OFFSET 2.48547 -0.328903 0.83742
                  }
                }
              }
              JOINT lRing1
              {
                OFFSET 8.82822 0.546677 1.51678
                CHANNELS 3 Zrotation Xrotation Yrotation
                JOINT lRing2
                {
                  OFFSET 2.60934 -0.819778 -0.0198488
                  CHANNELS 3 Zrotation Xrotation Yrotation
                  End Site
                  {
                    OFFSET 2.33842 -0.294052 0.168128
                  }
                }
              }
              JOINT lPinky1
              {
                OFFSET 8.27202 -0.0477905 -0.4584
                CHANNELS 3 Zrotation Xrotation Yrotation
                JOINT lPinky2
                {
                  OFFSET 1.82734 -0.647385 -0.700984
                  CHANNELS 3 Zrotation Xrotation Yrotation
                  End Site
                  {
                    OFFSET 1.69225 -0.51767 -0.607171
                  }
                }
              }
            }
          }
        }
      }
    }
  }
  JOINT rButtock
  {
    OFFSET -8.77824 4.35084 1.2192
    CHANNELS 3 Zrotation Xrotation Yrotation
    JOINT rThigh
    {
      OFFSET 0 -1.70687 -2.19456
      CHANNELS 3 Zrotation Xrotation Yrotation
      JOINT rShin
      {
        OFFSET 0 -36.8199 0.73152
        CHANNELS 3 Zrotation Xrotation Yrotation
        JOINT rFoot
        {
          OFFSET 0.73152 -45.1104 -5.12064
          CHANNELS 3 Zrotation Xrotation Yrotation
          End Site
          {
            OFFSET -1.1221 -3.69964 12.103
          }
        }
      }
    }
  }
  JOINT lButtock
  {
    OFFSET 8.77824 4.35084 1.2192
    CHANNELS 3 Zrotation Xrotation Yrotation
    JOINT lThigh
    {
      OFFSET 0 -1.70687 -2.19456
      CHANNELS 3 Zrotation Xrotation Yrotation
      JOINT lShin
      {
        OFFSET 0 -36.8199 0.73152
        CHANNELS 3 Zrotation Xrotation Yrotation
        JOINT lFoot
        {
          OFFSET -0.73152 -45.1104 -5.12064
          CHANNELS 3 Zrotation Xrotation Yrotation
          End Site
          {
            OFFSET 1.1221 -3.69964 12.103
          }
        }
      }
    }
  }
}
MOTION
Frames:	6
Frame Time:	0.00833333
192.41 83.185 7.58788 0.0 0.0 0.0 -3.13121 0.00208551 -0.0845034 -0.863232 0.0181967 -0.149332 4.74137e-14 -7.95139e-16 -3.97569e-16 1.43836e-13 3.18055e-15 -9.93923e-16 -0.0 0.0 0.0 -0.0 0.0 0.0 2.35558e-14 6.75557e-17 -4.96962e-17 5.07786e-13 1.88845e-15 -1.19271e-15 8.685e-12 -2.54703e-12 -1.46306e-13 9.95399e-11 2.91294e-12 -6.17028e-13 2.34762e-10 7.9131e-13 -1.66025e-12 4.05419e-10 1.36764e-12 -2.87602e-12 2.34767e-10 7.92356e-13 -1.66661e-12 7.73091 5.47488 0.417314 2.34761e-10 7.91759e-13 -1.66661e-12 2.90554 0.965183 0.102902 2.34768e-10 7.9166e-13 -1.66104e-12 10.2786 0.731801 0.0259123 2.34756e-10 7.92356e-13 -1.65707e-12 2.22167 -0.733487 -0.20892 2.35577e-14 6.98852e-17 -2.48481e-16 5.01141e-13 1.49089e-15 -2.98177e-15 8.70712e-12 2.65139e-12 -1.55847e-13 9.94782e-11 -2.29224e-12 -5.94764e-13 2.34698e-10 7.79214e-13 -1.66025e-12 4.05333e-10 1.34856e-12 -2.86807e-12 2.34695e-10 7.80826e-13 -1.65071e-12 -7.73091 5.47488 -0.417314 2.34699e-10 7.79236e-13 -1.66343e-12 -2.90554 0.965183 -0.102902 2.34695e-10 7.79435e-13 -1.66184e-12 -10.2786 0.731801 -0.0259123 2.34703e-10 7.82416e-13 -1.66661e-12 -2.22167 -0.733487 0.20892 -2.03217e-16 0.0 -3.88251e-19 -1.91858 -1.93503 0.0146211 -0.00850218 -2.07867 -0.0697749 -0.458883 4.00011 0.132491 2.03217e-16 0.0 3.88251e-19 -2.83801 -9.32628 0.322339 -0.00902628 11.3079 -0.235093 0.527123 -1.99512 -0.0183385
185.704 82.1025 -0.832783 173.861 -65.8889 -176.275 -4.18207 2.45932 0.508299 -0.177979 1.59181 -0.110768 -3.63448 4.3356 -0.62305 7.039 -11.8686 1.22741 -0.0 0.0 0.0 -0.0 0.0 0.0 -3.2886e-14 -4.03896e-14 2.88532e-13 23.1878 2.19757 1.77236 -4.05663 -1.81189 6.36959 0.0296488 3.82123 0.532733 -1.02894e-09 -1.84682e-09 3.7901e-10 -1.77253e-09 -3.21081e-09 6.70988e-10 -1.02894e-09 -1.84682e-09 3.79001e-10 7.73091 5.47488 0.417314 -1.02894e-09 -1.84682e-09 3.79005e-10 2.90554 0.965183 0.102902 -1.02894e-09 -1.84682e-09 3.7901e-10 10.2786 0.731801 0.0259123 -1.02895e-09 -1.84682e-09 3.79016e-10 2.22167 -0.733487 -0.20892 -3.291e-14 -4.03881e-14 2.88302e-13 -24.1069 3.75787 -2.55133 2.84498 -1.10336 -4.62802 -0.0102045 2.24223 -0.314256 -6.42401e-10 1.30605e-10 -1.55547e-10 -1.1109e-09 2.25895e-10 -2.61435e-10 -6.42405e-10 1.30608e-10 -1.55538e-10 -7.73091 5.47488 -0.417314 -6.424e-10 1.30608e-10 -1.55551e-10 -2.90554 0.965183 -0.102902 -6.42403e-10 1.30609e-10 -1.5555e-10 -10.2786 0.731801 -0.0259123 -6.42396e-10 1.30612e-10 -1.55556e-10 -2.22167 -0.733487 0.20892 -2.03217e-16 0.0 -3.88251e-19 -3.33531 -4.85813 -0.588943 0.0205505 7.84043 0.109869 -1.33759 -0.308282 -6.64563 2.03217e-16 0.0 3.88251e-19 -2.15042 -10.2496 1.4573 -0.0127368 18.5429 -0.361192 1.4496 -7.24141 4.83491
185.692 82.1103 -0.876513 173.872 -65.7798 -176.368 -5.34659 5.05179 1.13676 0.542757 3.25955 -0.0703347 -7.37666 8.92357 -1.29631 15.0944 -24.4069 2.71289 -0.0 0.0 0.0 -0.0 0.0 0.0 -9.40182e-14 -9.11752e-14 6.10962e-13 47.5534 4.50756 3.65755 -7.90997 -3.65266 13.1235 -0.0169595 7.8643 1.10449 -2.41085e-09 -3.83674e-09 7.70302e-10 -4.15444e-09 -6.67056e-09 1.3647e-09 -2.41085e-09 -3.83674e-09 7.7029e-10 7.73091 5.47488 0.417314 -2.41086e-09 -3.83674e-09 7.70299e-10 2.90554 0.965183 0.102902 -2.41085e-09 -3.83674e-09 7.70302e-10 10.2786 0.731801 0.0259123 -2.41086e-09 -3.83675e-09 7.70311e-10 2.22167 -0.733487 -0.20892 -9.40693e-14 -9.11747e-14 6.10698e-13 -49.2215 7.72007 -5.28772 5.66277 -2.24764 -9.53149 0.00581749 4.60398 -0.646895 -1.6121e-09 2.69766e-10 -3.19075e-10 -2.78714e-09 4.66577e-10 -5.35894e-10 -1.61211e-09 2.69772e-10 -3.19066e-10 -7.73091 5.47488 -0.417314 -1.6121e-09 2.69774e-10 -3.19078e-10 -2.90554 0.965183 -0.102902 -1.61211e-09 2.69774e-10 -3.19079e-10 -10.2786 0.731801 -0.0259123 -1.6121e-09 2.69778e-10 -3.19087e-10 -2.22167 -0.733487 0.20892 -2.03217e-16 0.0 -3.88251e-19 -4.8986 -7.94693 -1.23065 -0.0192349 18.3205 0.313298 -3.36583 -4.71534 -13.8656 2.03217e-16 0.0 3.88251e-19 -1.38391 -11.2245 2.66155 0.0224184 26.1903 -0.513407 3.40922 -12.6397 10.1405
185.696 82.1123 -0.948364 174.185 -65.6594 -176.711 -6.43734 7.37084 1.70661 1.18617 4.73905 -0.0336285 -10.6143 13.0006 -1.91285 22.9373 -35.5326 4.42957 -0.0 0.0 0.0 -0.0 0.0 0.0 -1.4577e-13 -1.21304e-13 8.65695e-13 69.1539 6.5674 5.34835 -10.9821 -5.16749 19.1802 -0.127892 11.4597 1.62709 -3.55635e-09 -5.54205e-09 1.14035e-09 -6.12844e-09 -9.63516e-09 2.01872e-09 -3.55635e-09 -5.54205e-09 1.14034e-09 7.73091 5.47488 0.417314 -3.55635e-09 -5.54205e-09 1.14035e-09 2.90554 0.965183 0.102902 -3.55635e-09 -5.54205e-09 1.14035e-09 10.2786 0.731801 0.0259123 -3.55636e-09 -5.54206e-09 1.14036e-09 2.22167 -0.733487 -0.20892 -1.45845e-13 -1.21304e-13 8.65404e-13 -71.3037 11.1834 -7.78626 8.0053 -3.22381 -13.9039 0.0436075 6.72589 -0.948574 -2.3966e-09 3.90256e-10 -4.63321e-10 -4.14338e-09 6.74989e-10 -7.78567e-10 -2.3966e-09 3.90263e-10 -4.63312e-10 -7.73091 5.47488 -0.417314 -2.3966e-09 3.90266e-10 -4.63325e-10 -2.90554 0.965183 -0.102902 -2.3966e-09 3.90267e-10 -4.63326e-10 -10.2786 0.731801 -0.0259123 -2.39659e-09 3.90271e-10 -4.63336e-10 -2.22167 -0.733487 0.20892 -2.03217e-16 0.0 -3.88251e-19 -6.35644 -10.6998 -1.82139 -0.125864 27.6777 0.526196 -6.11204 -8.37786 -20.4285 2.03217e-16 0.0 3.88251e-19 -0.663128 -12.0805 3.7491 0.0953581 33.0119 -0.675287 6.03659 -17.2313 15.1191
185.702 82.1105 -1.00605 174.336 -65.5512 -176.865 -7.23605 9.00914 2.11788 1.64071 5.748 -0.00633171 -12.7995 15.8062 -2.34533 28.8883 -43.1943 6.03639 -0.0 0.0 0.0 -0.0 0.0 0.0 -1.74069e-13 -9.97901e-14 9.51185e-13 84.1302 8.026 6.52367 -12.9304 -6.12284 23.4257 -0.244414 13.9397 1.99909 -4.11082e-09 -6.53584e-09 1.4573e-09 -7.08263e-09 -1.13619e-08 2.57348e-09 -4.11082e-09 -6.53584e-09 1.45728e-09 7.73091 5.47488 0.417314 -4.11082e-09 -6.53584e-09 1.4573e-09 2.90554 0.965183 0.102902 -4.11082e-09 -6.53584e-09 1.4573e-09 10.2786 0.731801 0.0259123 -4.11082e-09 -6.53584e-09 1.45731e-09 2.22167 -0.733487 -0.20892 -1.74164e-13 -9.97901e-14 9.50887e-13 -86.5356 13.4866 -9.56157 9.53359 -3.86265 -16.9296 0.0841899 8.24896 -1.16747 -2.71807e-09 4.64065e-10 -5.59364e-10 -4.69964e-09 8.02724e-10 -9.41776e-10 -2.71808e-09 4.64073e-10 -5.59355e-10 -7.73091 5.47488 -0.417314 -2.71807e-09 4.64077e-10 -5.59367e-10 -2.90554 0.965183 -0.102902 -2.71807e-09 4.64078e-10 -5.59369e-10 -10.2786 0.731801 -0.0259123 -2.71807e-09 4.64081e-10 -5.5938e-10 -2.22167 -0.733487 0.20892 -2.03217e-16 0.0 -3.88251e-19 -7.41917 -12.6169 -2.26243 -0.250806 34.2283 0.706983 -8.54507 -10.7416 -25.0808 2.03217e-16 0.0 3.88251e-19 -0.136318 -12.6512 4.52851 0.175571 37.7701 -0.80979 8.37262 -20.2767 18.7531
185.693 82.1115 -1.0251 174.191 -65.5336 -176.755 -7.57348 9.70167 2.30021 1.83664 6.08848 0.00825785 -13.6124 16.8372 -2.49205 31.2462 -46.0591 6.7944 -0.0 0.0 0.0 -0.0 0.0 0.0 -1.72331e-13 1.90791e-14 7.82066e-13 89.9583 8.65485 6.95458 -13.6522 -6.47005 25.0938 -0.29703 14.8596 2.14018 -3.84656e-09 -6.71712e-09 1.807e-09 -6.62313e-09 -1.1674e-08 3.17464e-09 -3.84655e-09 -6.71712e-09 1.80699e-09 7.73091 5.47488 0.417314 -3.84656e-09 -6.71713e-09 1.807e-09 2.90554 0.965183 0.102902 -3.84656e-09 -6.71713e-09 1.807e-09 10.2786 0.731801 0.0259123 -3.84656e-09 -6.71712e-09 1.80701e-09 2.22167 -0.733487 -0.20892 -1.72436e-13 1.90806e-14 7.81793e-13 -92.5298 14.2082 -10.2183 10.0848 -4.08767 -18.0623 0.105277 8.92996 -1.26606 -2.34907e-09 4.82351e-10 -5.89716e-10 -4.06302e-09 8.34559e-10 -9.97022e-10 -2.34908e-09 4.82357e-10 -5.89704e-10 -7.73091 5.47488 -0.417314 -2.34906e-09 4.8236e-10 -5.89718e-10 -2.90554 0.965183 -0.102902 -2.34906e-09 4.8236e-10 -5.8972e-10 -10.2786 0.731801 -0.0259123 -2.34906e-09 4.82364e-10 -5.89732e-10 -2.22167 -0.733487 0.20892 -2.03217e-16 0.0 -3.88251e-19 -7.85984 -13.3667 -2.47231 -0.31462 36.8489 0.791187 -9.63867 -11.7133 -26.8674 2.03217e-16 0.0 3.88251e-19 0.0832308 -12.8293 4.85467 0.215066 39.6391 -0.869505 9.40011 -21.5 20.1634
